<svg width="48" height="48" viewBox="0 0 48 48" fill="none" xmlns="http://www.w3.org/2000/svg">
<circle cx="24" cy="24" r="18" fill="#337D5A"/>
<circle cx="24" cy="24" r="24" fill="#93B474" fill-opacity="0.15"/>
<g clip-path="url(#clip0_380_9)">
<path d="M26.8892 30.7498H26.167V31.4721H26.8892V30.7498Z" fill="white"/>
<path d="M21.8333 26.4163H19.6665V27.1385H21.8333V26.4163Z" fill="white"/>
<path d="M32.6672 33.6063L31.8214 24.3163C31.6761 22.6387 30.2682 21.3531 28.5843 21.3605H26.1669V20.3645C26.63 19.8394 26.8866 19.164 26.8891 18.4639V16.9908C26.9179 16.9775 26.9457 16.9623 26.9725 16.9453C27.1482 16.8092 27.2508 16.5992 27.2503 16.3769V15.6756C27.2501 15.4182 27.1123 15.1805 26.8891 15.0523V13.5995C26.8875 13.1163 26.5675 12.692 26.1033 12.5576L24.2977 12.042C24.1031 11.986 23.8967 11.986 23.7022 12.042L21.8965 12.5576C21.4325 12.6921 21.1127 13.1164 21.1111 13.5995V15.0523C20.8879 15.1805 20.7501 15.4182 20.75 15.6756V16.3769C20.7491 16.5995 20.8517 16.8097 21.0277 16.9461C21.0542 16.9651 21.0821 16.9822 21.1111 16.9973V18.4653C21.1136 19.1655 21.3702 19.8409 21.8333 20.3659V21.3605H19.4159C17.732 21.3533 16.3241 22.639 16.1788 24.3167L15.333 33.6063C15.3151 33.805 15.4616 33.9806 15.6602 33.9985C15.6715 33.9996 15.6828 34 15.6942 34H32.306C32.5055 34.0008 32.6678 33.8398 32.6686 33.6403C32.6687 33.629 32.6682 33.6176 32.6672 33.6063ZM26.1669 18.4639C26.1661 19.2413 25.7497 19.9589 25.0752 20.3454C24.0362 20.9391 22.7126 20.5782 22.1189 19.5392C21.9317 19.2117 21.8333 18.841 21.8333 18.4639V17.0298L22.5989 16.8385C23.5191 16.609 24.4815 16.609 25.4016 16.8385L26.1669 17.0298V18.4639ZM25.4446 20.9651V21.6057L24.0001 23.628L22.5556 21.6057V20.9651C22.5596 20.9676 22.5628 20.9705 22.5668 20.9726C23.4556 21.4777 24.5446 21.4777 25.4334 20.9726C25.4374 20.9705 25.4406 20.9676 25.4446 20.9651ZM21.8333 13.5995C21.8332 13.4382 21.9401 13.2964 22.0952 13.2521H22.0948L23.9004 12.736C23.9651 12.7174 24.0337 12.7174 24.0983 12.736L25.904 13.2517C26.0596 13.2957 26.167 13.4378 26.1669 13.5995V14.8407L25.5768 14.6934C24.5415 14.4353 23.4587 14.4353 22.4234 14.6934L21.8333 14.8407V13.5995ZM21.4722 16.3769V15.6756L22.5989 15.3939C23.5189 15.1643 24.4813 15.1643 25.4013 15.3939L26.528 15.6756V16.3769L25.5768 16.1393C24.5416 15.8813 23.459 15.8813 22.4238 16.1393L21.4722 16.3769ZM16.8982 24.3821C17.0111 23.0772 18.1062 22.0771 19.4159 22.0827H22.0085L23.7058 24.4593C23.8339 24.6217 24.0694 24.6494 24.2318 24.5213C24.2547 24.5031 24.2756 24.4823 24.2937 24.4593L25.9917 22.0827H28.5843C29.8939 22.0771 30.9889 23.0769 31.102 24.3817L31.4838 28.5831H29.7781V24.9718H18.2221V28.5831H16.5165L16.8982 24.3821ZM24.7224 25.694V29.3053H23.2778V25.694H24.7224ZM16.7775 31.1109V33.2777H16.0914L16.4525 29.3053H18.2221V30.094C18.1064 30.0512 17.9843 30.0288 17.8609 30.0276C17.2626 30.0276 16.7775 30.5126 16.7775 31.1109ZM20.3888 33.2777H20.0277H17.4998V31.1109C17.4998 30.9115 17.6615 30.7498 17.8609 30.7498C18.0604 30.7498 18.2221 30.9115 18.2221 31.1109V32.5555H20.3888C20.5883 32.5555 20.75 32.7172 20.75 32.9166C20.75 33.116 20.5883 33.2777 20.3888 33.2777ZM26.5944 33.2777H21.4058C21.4486 33.1621 21.471 33.0399 21.4722 32.9166C21.4722 32.3182 20.9872 31.8332 20.3888 31.8332H18.9443V25.694H22.5556V30.0276H25.4446V25.694H29.0559V31.8332H27.6114C27.013 31.8332 26.528 32.3182 26.528 32.9166C26.5292 33.0399 26.5517 33.1621 26.5944 33.2777ZM30.5004 33.2777H27.6114C27.4119 33.2777 27.2503 33.116 27.2503 32.9166C27.2503 32.7172 27.4119 32.5555 27.6114 32.5555H29.7781V31.1109C29.7781 30.9115 29.9398 30.7498 30.1393 30.7498C30.3387 30.7498 30.5004 30.9115 30.5004 31.1109V33.2777ZM31.2227 33.2777V31.1109C31.2227 30.5126 30.7376 30.0276 30.1393 30.0276C30.016 30.0287 29.8938 30.0512 29.7781 30.094V29.3053H31.5495L31.9106 33.2777H31.2227Z" fill="white"/>
<path d="M28.3336 30.7498H27.6113V31.4721H28.3336V30.7498Z" fill="white"/>
</g>
<defs>
<clipPath id="clip0_380_9">
<rect width="22" height="22" fill="white" transform="translate(13 12)"/>
</clipPath>
</defs>
</svg>
