<svg width="48" height="48" viewBox="0 0 48 48" fill="none" xmlns="http://www.w3.org/2000/svg">
<circle cx="24" cy="24" r="18" fill="#337D5A"/>
<circle cx="24" cy="24" r="24" fill="#93B474" fill-opacity="0.15"/>
<g clip-path="url(#clip0_380_18)">
<path d="M22.0142 19.6809C22.0142 19.1962 22.0142 18.7142 22.0142 18.2295C22.0142 17.8496 21.7915 17.6269 21.4116 17.6269C20.8484 17.6269 20.2878 17.6269 19.7246 17.6242C19.6538 17.6242 19.5805 17.6138 19.5124 17.5928C19.4154 17.5614 19.384 17.4828 19.4285 17.3911C19.4547 17.3387 19.4888 17.2889 19.5307 17.247C20.8903 15.8872 22.2473 14.5274 23.6069 13.1703C23.8348 12.9423 24.1675 12.9423 24.3981 13.1729C25.7524 14.5274 27.1068 15.882 28.4585 17.2365C28.5345 17.3125 28.621 17.3963 28.5738 17.5142C28.524 17.6347 28.4009 17.6269 28.2961 17.6269C27.7643 17.6295 27.2352 17.64 26.7034 17.6242C26.3681 17.6138 26.0694 17.8286 26.072 18.2557C26.0773 19.2277 26.072 20.2023 26.0746 21.1743C26.0746 21.3446 26.0196 21.4887 25.8939 21.6014C25.7891 21.6957 25.6634 21.7376 25.5219 21.7376C24.5369 21.7376 23.5493 21.7376 22.5643 21.7376C22.2421 21.7376 22.0089 21.4992 22.0089 21.1769C22.0142 20.6791 22.0142 20.1787 22.0142 19.6809Z" fill="white"/>
<path d="M22.0146 28.3295C22.0146 27.8055 22.0146 27.2815 22.0146 26.7575C22.0146 26.4012 22.2399 26.1759 22.5962 26.1759C23.5707 26.1759 24.5426 26.1759 25.5171 26.1759C25.8524 26.1759 26.0777 26.4012 26.0777 26.7365C26.0777 27.7714 26.0777 28.8089 26.0777 29.8438C26.0777 30.0194 26.1144 30.1792 26.2454 30.3076C26.3554 30.4124 26.4838 30.47 26.6357 30.47C27.1518 30.47 27.6652 30.47 28.1813 30.47C28.2442 30.47 28.307 30.4753 28.3673 30.491C28.4852 30.5198 28.5271 30.6141 28.4695 30.7215C28.4433 30.7713 28.4066 30.8159 28.3673 30.8552C27.0444 32.1782 25.7214 33.5013 24.3985 34.8244C24.1732 35.0471 23.8562 35.055 23.6205 34.8428C23.5969 34.8218 23.5759 34.7982 23.5523 34.7773C22.4678 33.6926 21.3806 32.6053 20.2961 31.5206C20.076 31.3006 19.8586 31.0805 19.6386 30.8578C19.5652 30.7818 19.4709 30.7032 19.518 30.5827C19.5678 30.4569 19.6936 30.4674 19.8036 30.4674C20.3432 30.4648 20.8829 30.4674 21.4225 30.4674C21.7814 30.4674 22.012 30.2421 22.012 29.8805C22.0172 29.3644 22.0146 28.8456 22.0146 28.3295Z" fill="white"/>
<path d="M17.5767 24.0065C17.5767 25.4056 17.5767 26.8073 17.5767 28.2064C17.5767 28.2797 17.5715 28.3583 17.5505 28.4291C17.5217 28.5286 17.4353 28.5679 17.3436 28.5181C17.2781 28.4841 17.2178 28.4369 17.1654 28.3845C15.8425 27.064 14.5196 25.7409 13.1966 24.4152C12.9373 24.1559 12.9399 23.8362 13.1992 23.5768C13.9275 22.8485 14.6558 22.1228 15.384 21.3944C15.984 20.7944 16.5812 20.1944 17.1838 19.5971C17.2283 19.5526 17.2781 19.5133 17.3331 19.4844C17.4379 19.4294 17.5296 19.4687 17.5584 19.5814C17.5767 19.6495 17.5793 19.7228 17.5793 19.7962C17.5767 21.2005 17.5767 22.6048 17.5767 24.0065Z" fill="white"/>
<path d="M30.5205 23.9987C30.5205 22.6363 30.5205 21.2739 30.5205 19.9115C30.5205 19.8329 30.5231 19.7543 30.5441 19.6783C30.5755 19.563 30.6646 19.5263 30.772 19.584C30.827 19.6128 30.8768 19.6547 30.9187 19.6993C32.2207 20.9988 33.5227 22.3009 34.822 23.603C35.0525 23.8336 35.0578 24.1585 34.8325 24.3943C34.7277 24.5043 34.6203 24.6091 34.5129 24.7139C33.7637 25.4632 33.0118 26.2152 32.2626 26.9645C31.812 27.4151 31.3614 27.8658 30.9082 28.3138C30.8322 28.3898 30.751 28.4762 30.6332 28.4291C30.5153 28.3819 30.5231 28.264 30.5231 28.1618C30.5205 27.5278 30.5205 26.8937 30.5205 26.2597C30.5205 25.5052 30.5205 24.7506 30.5205 23.9987Z" fill="white"/>
</g>
<defs>
<clipPath id="clip0_380_18">
<rect width="22" height="22" fill="white" transform="translate(13 13)"/>
</clipPath>
</defs>
</svg>
