<svg width="15" height="15" viewBox="0 0 15 15" fill="none" xmlns="http://www.w3.org/2000/svg">
<g clip-path="url(#clip0_162_16)">
<path d="M1.4397 5.23974C1.62945 5.37363 2.20142 5.77131 3.15564 6.43255C4.1099 7.09379 4.84092 7.60294 5.34874 7.96C5.40453 7.99914 5.52307 8.08423 5.7044 8.21537C5.88576 8.34659 6.03646 8.45264 6.15637 8.53353C6.27637 8.61439 6.42144 8.7051 6.59172 8.80551C6.76194 8.90584 6.9224 8.98131 7.07307 9.03127C7.22376 9.08163 7.36326 9.10658 7.49159 9.10658H7.5H7.50844C7.63677 9.10658 7.77632 9.0816 7.92702 9.03127C8.07763 8.98131 8.23823 8.90575 8.40831 8.80551C8.57847 8.70498 8.72354 8.61436 8.84354 8.53353C8.96354 8.45264 9.11412 8.34659 9.29554 8.21537C9.47684 8.08411 9.59552 7.99914 9.65132 7.96C10.1646 7.60294 11.4705 6.69609 13.5687 5.23956C13.976 4.95508 14.3164 4.61182 14.5897 4.21002C14.8633 3.80839 15 3.38705 15 2.94625C15 2.5779 14.8674 2.26258 14.6023 2.00033C14.3372 1.73802 14.0233 1.60693 13.6607 1.60693H1.33923C0.909571 1.60693 0.578919 1.752 0.347334 2.04213C0.115778 2.33233 0 2.69505 0 3.13028C0 3.48184 0.153511 3.8628 0.460385 4.27293C0.76723 4.6831 1.09378 5.00539 1.4397 5.23974Z" fill="#337D5A"/>
<path d="M14.1628 6.13543C12.3327 7.37416 10.943 8.33686 9.99446 9.02332C9.67638 9.2576 9.41835 9.44049 9.22019 9.57154C9.02203 9.70268 8.75849 9.83661 8.42918 9.97326C8.1 10.1101 7.79321 10.1783 7.50856 10.1783H7.50003H7.49161C7.20702 10.1783 6.90006 10.1101 6.57087 9.97326C6.24169 9.83661 5.97797 9.70268 5.77987 9.57154C5.58182 9.44049 5.3237 9.2576 5.00566 9.02332C4.25227 8.4709 2.86557 7.50815 0.84551 6.13543C0.527348 5.92352 0.245541 5.68062 0 5.40723V12.0532C0 12.4218 0.131082 12.7369 0.393393 12.9992C0.655645 13.2616 0.970992 13.3927 1.33932 13.3927H13.6608C14.029 13.3927 14.3444 13.2616 14.6066 12.9992C14.869 12.7368 15 12.4218 15 12.0532V5.40723C14.76 5.67496 14.4811 5.91786 14.1628 6.13543Z" fill="#337D5A"/>
</g>
<defs>
<clipPath id="clip0_162_16">
<rect width="15" height="15" fill="white"/>
</clipPath>
</defs>
</svg>
