<svg width="11" height="11" viewBox="0 0 11 11" fill="none" xmlns="http://www.w3.org/2000/svg">
<path d="M5.50001 5.37972C6.72303 5.37972 7.71457 4.17544 7.71457 2.68988C7.71457 1.20428 7.38903 0 5.50001 0C3.611 0 3.2854 1.20428 3.2854 2.68988C3.2854 4.17544 4.27694 5.37972 5.50001 5.37972Z" fill="#93B474"/>
<path d="M1.31715 9.4868C1.31639 9.46128 1.31677 9.39622 1.31715 9.4868V9.4868Z" fill="#93B474"/>
<path d="M9.68268 9.55756C9.68309 9.38552 9.68387 9.53276 9.68268 9.55756V9.55756Z" fill="#93B474"/>
<path d="M9.67799 9.3782C9.63698 6.79031 9.29899 6.0529 6.71264 5.58612C6.71264 5.58612 6.34857 6.05004 5.5 6.05004C4.65143 6.05004 4.2873 5.58612 4.2873 5.58612C1.72917 6.04781 1.37063 6.77428 1.32349 9.29412C1.31962 9.49989 1.31783 9.5107 1.31714 9.48681C1.3173 9.53157 1.31748 9.61435 1.31748 9.7587C1.31748 9.7587 1.93323 11 5.5 11C9.0667 11 9.68252 9.7587 9.68252 9.7587C9.68252 9.66596 9.68258 9.60147 9.68267 9.55759C9.68198 9.57236 9.6806 9.54373 9.67799 9.3782Z" fill="#93B474"/>
</svg>
