<svg width="14" height="14" viewBox="0 0 14 14" fill="none" xmlns="http://www.w3.org/2000/svg">
<g clip-path="url(#clip0_13_2)">
<path d="M11.2704 13.2613C11.161 13.2613 11.0524 13.229 10.9592 13.1658L7.43908 10.778L5.55107 12.1365C5.40299 12.243 5.21214 12.2698 5.0402 12.2083C4.86848 12.1467 4.73807 12.0045 4.69152 11.8281L3.74352 8.23548L0.356217 6.94027C0.142973 6.8587 0.00154931 6.65469 -2.36459e-06 6.42637C-0.00155404 6.19806 0.137062 5.99213 0.349272 5.90767L13.229 0.782719C13.2875 0.757892 13.3493 0.743558 13.4117 0.739715C13.434 0.738385 13.4564 0.738385 13.4786 0.739642C13.6078 0.747326 13.7347 0.799935 13.8337 0.897025C13.8439 0.907074 13.8537 0.917345 13.8629 0.928059C13.9449 1.02175 13.99 1.13598 13.9985 1.25236C14.0006 1.28162 14.0004 1.31125 13.9979 1.34088C13.9961 1.36201 13.9931 1.38307 13.9888 1.40398L11.8147 12.8109C11.7798 12.9942 11.6551 13.1476 11.4827 13.219C11.4144 13.2474 11.3422 13.2613 11.2704 13.2613ZM7.74816 9.64838L10.8838 11.7753L12.5754 2.89942L6.46574 8.77849L7.73338 9.63841C7.73848 9.64159 7.74336 9.64498 7.74816 9.64838ZM5.13788 9.17542L5.55772 10.7663L6.46227 10.1154L5.27783 9.31189C5.22278 9.27465 5.17564 9.22825 5.13788 9.17542ZM2.07894 6.41226L4.40483 7.30152C4.57145 7.36521 4.6972 7.5053 4.74272 7.67776L5.03769 8.79563C5.05121 8.66669 5.10965 8.54537 5.2046 8.45397L11.0263 2.85213L2.07894 6.41226Z" fill="white"/>
</g>
<defs>
<clipPath id="clip0_13_2">
<rect width="14" height="14" fill="white"/>
</clipPath>
</defs>
</svg>
