<svg width="13" height="13" viewBox="0 0 13 13" fill="none" xmlns="http://www.w3.org/2000/svg">
<path d="M3.42623 6.9238H4.85124V12.7903C4.85124 12.9061 4.94509 13 5.06092 13H7.47707C7.5929 13 7.68675 12.9061 7.68675 12.7903V6.95144H9.32492C9.43143 6.95144 9.52105 6.87151 9.53321 6.7657L9.78201 4.60594C9.78885 4.54652 9.77002 4.48701 9.73027 4.44244C9.69047 4.39782 9.63352 4.37228 9.57376 4.37228H7.68683V3.01843C7.68683 2.61032 7.90658 2.40336 8.34002 2.40336C8.40179 2.40336 9.57376 2.40336 9.57376 2.40336C9.68959 2.40336 9.78344 2.30947 9.78344 2.19369V0.211229C9.78344 0.0954032 9.68959 0.00155161 9.57376 0.00155161H7.87349C7.86149 0.000964516 7.83487 0 7.79561 0C7.5006 0 6.47515 0.0579128 5.66512 0.803106C4.76762 1.6289 4.89238 2.61766 4.92219 2.78909V4.37224H3.42623C3.3104 4.37224 3.21655 4.46609 3.21655 4.58191V6.71408C3.21655 6.82991 3.3104 6.9238 3.42623 6.9238Z" fill="#323232"/>
</svg>
