<svg width="17" height="17" viewBox="0 0 17 17" fill="none" xmlns="http://www.w3.org/2000/svg">
<g clip-path="url(#clip0_64_0)">
<path d="M5.15384 16.9995C4.96421 16.9997 4.81048 16.8454 4.81048 16.6558C4.81048 15.7905 4.80889 14.9236 4.81207 14.0583C4.81207 13.9598 4.77873 13.9028 4.68667 13.8705C4.51048 13.8073 4.33588 13.7381 4.15651 13.6811C3.09143 13.3454 2.3581 12.6464 1.84381 11.7072C1.56286 11.1914 1.39302 10.6386 1.26286 10.072C1.05175 9.15432 0.978735 8.22434 1.00413 7.28511C1.02159 6.67846 1.07239 6.07489 1.16604 5.47594C1.23905 5.00325 1.30572 4.52748 1.41524 4.06094C1.67239 2.97082 2.28508 2.10089 3.20889 1.43727C3.77556 1.03078 4.40572 0.745936 5.07238 0.533455C5.61683 0.359467 6.17715 0.245528 6.74381 0.159304C7.55175 0.0361267 8.36445 -0.0208427 9.18032 0.00533242C9.67873 0.0222693 10.1787 0.0576828 10.6756 0.105414C11.3819 0.173161 12.0819 0.284021 12.7692 0.461088C13.4279 0.630457 14.0549 0.873732 14.6311 1.23095C15.6327 1.84991 16.2549 2.73217 16.5597 3.83768C16.7517 4.53364 16.8787 5.24191 16.9438 5.95941C17.0137 6.72773 17.0152 7.49605 16.9676 8.26591C16.939 8.72166 16.9025 9.17588 16.8216 9.62548C16.6644 10.5016 16.3978 11.3407 15.9375 12.1137C15.5898 12.6957 15.093 13.1376 14.493 13.4717C13.9692 13.7627 13.4041 13.949 12.8184 14.0768C12.3549 14.1784 11.8867 14.2385 11.4137 14.2754C10.3486 14.3555 9.2835 14.3878 8.21524 14.4155C8.18032 14.4171 8.13429 14.4309 8.11207 14.4556C7.4708 15.1361 6.78508 15.7751 6.10731 16.4202C5.91683 16.6019 5.72477 16.7836 5.52953 16.9622C5.50731 16.9838 5.46921 16.9976 5.43746 16.9976C5.34317 16.999 5.24888 16.9995 5.15384 16.9995ZM5.57221 15.8052C5.57017 15.8332 5.6058 15.8497 5.62477 15.829C5.85175 15.6134 6.08191 15.4025 6.30572 15.1823C6.71683 14.7789 7.12477 14.3724 7.52953 13.9613C7.71207 13.7766 7.93111 13.6826 8.18984 13.6734C8.9454 13.6441 9.70096 13.621 10.4549 13.5918C11.0756 13.5671 11.6946 13.524 12.3073 13.4193C12.9041 13.3177 13.4803 13.1576 14.0184 12.882C14.6184 12.5756 15.0851 12.1383 15.3898 11.5486C15.7486 10.8542 15.9756 10.1182 16.0946 9.34987C16.1867 8.75092 16.2216 8.14735 16.2343 7.54378C16.2533 6.71541 16.2025 5.89013 16.0581 5.07254C15.9787 4.62448 15.8819 4.18104 15.7359 3.74992C15.4978 3.04473 15.0835 2.45964 14.4644 2.0162C13.9692 1.66207 13.4168 1.42033 12.8311 1.24634C12.3406 1.10161 11.8391 1.00769 11.3343 0.932241C10.8121 0.855255 10.2883 0.795207 9.76286 0.764412C9.01365 0.719761 8.26445 0.727459 7.51683 0.805985C6.93429 0.866034 6.3581 0.953797 5.79143 1.09699C5.09778 1.27098 4.44064 1.52503 3.83746 1.90534C2.95651 2.46118 2.38191 3.23104 2.1581 4.22877C2.05493 4.68761 1.98826 5.15568 1.91524 5.62068C1.82794 6.18883 1.78032 6.76007 1.76604 7.33284C1.74699 8.02879 1.78826 8.72166 1.90731 9.40838C1.99143 9.89031 2.10413 10.3661 2.27556 10.8265C2.47715 11.3638 2.75969 11.8534 3.1835 12.2584C3.48032 12.5417 3.81207 12.7727 4.21365 12.902C4.45334 12.979 4.68826 13.0729 4.92477 13.1637C5.09778 13.23 5.2581 13.3177 5.37873 13.4609C5.52477 13.6334 5.57238 13.8351 5.57238 14.0537C5.57238 14.6373 5.57238 15.2193 5.57238 15.8028C5.57232 15.8036 5.57226 15.8044 5.57221 15.8052Z" fill="white"/>
<path d="M11.4191 12.1946C11.2746 12.193 11.0968 12.1499 10.9254 12.0791C9.71906 11.5833 8.60001 10.9459 7.59525 10.1267C6.63334 9.34302 5.83017 8.42688 5.16667 7.39219C4.77937 6.79017 4.48414 6.1481 4.22858 5.48603C4.17937 5.35977 4.11271 5.23813 4.08731 5.10726C3.96826 4.49137 4.20318 4.01252 4.71271 3.64915C4.93652 3.49055 5.19048 3.39201 5.46191 3.33812C5.72223 3.28577 5.94287 3.37354 6.13017 3.54444C6.50001 3.8801 6.81906 4.25733 7.08414 4.67614C7.20794 4.87014 7.32064 5.07184 7.42699 5.27509C7.58572 5.57841 7.53017 5.83554 7.26667 6.06188C7.16667 6.14657 7.06033 6.22509 6.95874 6.30824C6.61112 6.59616 6.53175 6.88255 6.70001 7.29519C6.9508 7.91416 7.34287 8.43612 7.8635 8.86878C8.26191 9.19982 8.70953 9.4508 9.19366 9.64172C9.53652 9.77722 9.83493 9.6525 10.0445 9.36149C10.1413 9.226 10.2413 9.09666 10.3825 9.00274C10.6429 8.83029 10.9206 8.83029 11.2064 8.92883C11.3984 8.99504 11.5683 9.10282 11.7302 9.21984C12.1032 9.48929 12.481 9.75566 12.8492 10.0313C13.0206 10.1591 13.1492 10.3223 13.1825 10.5394C13.2048 10.6949 13.1651 10.8412 13.1032 10.9828C12.8873 11.4663 12.5254 11.8143 12.0381 12.0406C11.7889 12.1622 11.654 12.1946 11.4191 12.1946Z" fill="white"/>
<path d="M9.46349 2.58521C10.6206 2.59136 11.673 3.02864 12.5111 3.92322C13.0762 4.52833 13.4127 5.24275 13.5254 6.05265C13.5921 6.5238 13.5698 6.99341 13.4651 7.45841C13.4254 7.63547 13.3048 7.74787 13.1381 7.76173C12.9619 7.77559 12.7984 7.68628 12.7349 7.54155C12.7 7.45995 12.7048 7.3768 12.7222 7.29212C12.9238 6.32825 12.7444 5.4383 12.1413 4.64534C11.5889 3.92014 10.8397 3.49364 9.91905 3.35968C9.5 3.29809 9.08571 3.32427 8.67143 3.41049C8.46825 3.45207 8.28571 3.33043 8.24127 3.1318C8.19365 2.92702 8.30159 2.7438 8.50476 2.69452C8.79048 2.6237 9.08095 2.59444 9.46349 2.58521Z" fill="white"/>
<path d="M12.4 6.20355C12.4403 6.48035 12.4295 6.76322 12.3917 7.04038C12.3884 7.06474 12.3848 7.08915 12.381 7.11352C12.3492 7.31368 12.1778 7.42762 11.9587 7.40299C11.7556 7.37989 11.6159 7.22284 11.6302 7.02576C11.6397 6.89026 11.6651 6.75477 11.6667 6.61773C11.6778 5.65387 11.0397 4.80857 10.0889 4.52834C9.75397 4.4298 9.41111 4.4067 9.06508 4.46521C8.70952 4.5268 8.55079 4.21578 8.62064 3.98328C8.66191 3.84932 8.75873 3.76618 8.89841 3.74308C9.9381 3.57987 10.8381 3.85702 11.581 4.58069C12.0413 5.02875 12.3095 5.57688 12.4 6.20355Z" fill="white"/>
<path d="M9.4127 4.80547C10.3365 4.81779 11.1381 5.50296 11.2619 6.3806C11.2778 6.49608 11.2889 6.61618 11.2746 6.73012C11.2492 6.9272 11.0794 7.0396 10.8603 7.02266C10.6683 7.0088 10.527 6.86561 10.5238 6.67469C10.5222 6.44373 10.4667 6.22817 10.3317 6.03724C10.1016 5.71236 9.78095 5.55069 9.3746 5.54299C9.21111 5.53992 9.08413 5.47525 9.02381 5.32435C8.96349 5.17192 8.98413 5.02873 9.10159 4.90709C9.19048 4.81933 9.30159 4.79931 9.4127 4.80547Z" fill="white"/>
</g>
<defs>
<clipPath id="clip0_64_0">
<rect width="16" height="17" fill="white" transform="translate(1)"/>
</clipPath>
</defs>
</svg>
