<svg width="48" height="48" viewBox="0 0 48 48" fill="none" xmlns="http://www.w3.org/2000/svg">
<circle cx="24" cy="24" r="18" fill="#337D5A"/>
<circle cx="24" cy="24" r="24" fill="#93B474" fill-opacity="0.15"/>
<g clip-path="url(#clip0_380_37)">
<path d="M35.0491 17.6952L24.6272 13.7421C24.5453 13.7109 24.4547 13.7109 24.3728 13.7421L13.9509 17.6952C13.8827 17.7211 13.8239 17.767 13.7825 17.8271C13.741 17.8871 13.7188 17.9583 13.7188 18.0313V30.9688C13.7187 31.0415 13.7408 31.1125 13.782 31.1724C13.8232 31.2324 13.8816 31.2784 13.9495 31.3044L24.3713 35.3078C24.4539 35.3393 24.5451 35.3393 24.6276 35.3078L35.0495 31.3403C35.1176 31.3145 35.1762 31.2685 35.2176 31.2086C35.259 31.1486 35.2812 31.0775 35.2812 31.0047V18.0313C35.2812 17.9583 35.259 17.8871 35.2175 17.8271C35.1761 17.767 35.1173 17.7211 35.0491 17.6952ZM24.5 14.4623L33.9088 18.0313L24.5 21.6002L21.6419 20.516L26.115 18.8219C26.1832 18.796 26.2419 18.75 26.2833 18.69C26.3248 18.63 26.347 18.5588 26.347 18.4859C26.347 18.4129 26.3248 18.3417 26.2833 18.2817C26.2419 18.2217 26.1832 18.1757 26.115 18.1498L23.4341 17.1328C23.352 17.1017 23.2614 17.1017 23.1793 17.1328L17.9497 19.1155L15.0912 18.0313L24.5 14.4623ZM18.3906 20.0513L20.1875 20.7341V26.1017L18.3906 25.4135V20.0513ZM18.9627 19.4997L23.3069 17.8516L24.974 18.4841L20.6285 20.1314L18.9627 19.4997ZM14.4375 18.552L17.6719 19.7789V25.6608C17.6719 25.7335 17.694 25.8046 17.7352 25.8645C17.7765 25.9245 17.835 25.9705 17.903 25.9964L20.4186 26.9596C20.473 26.9804 20.5317 26.9876 20.5895 26.9807C20.6473 26.9738 20.7026 26.9529 20.7506 26.9199C20.7986 26.8869 20.8379 26.8427 20.865 26.7911C20.8921 26.7395 20.9062 26.6822 20.9062 26.6239V21.0054L24.1406 22.2323V34.4489L14.4375 30.7219V18.552ZM24.8594 34.4507V22.232L34.5625 18.552V30.7571L24.8594 34.4507Z" fill="white"/>
<path d="M28.3248 30.9756L26.1636 31.7982C26.0849 31.828 26.0193 31.8844 25.978 31.9577C25.9367 32.0309 25.9224 32.1163 25.9375 32.199C25.9527 32.2818 25.9964 32.3565 26.061 32.4103C26.1256 32.4641 26.2071 32.4936 26.2911 32.4936C26.3349 32.4936 26.3783 32.4856 26.4191 32.4699L28.5804 31.6472C28.6253 31.6311 28.6665 31.6061 28.7017 31.5738C28.7369 31.5416 28.7653 31.5026 28.7852 31.4592C28.8052 31.4158 28.8163 31.3689 28.8179 31.3212C28.8195 31.2735 28.8116 31.2259 28.7946 31.1813C28.7776 31.1367 28.7519 31.0959 28.719 31.0613C28.6861 31.0267 28.6466 30.9991 28.6029 30.9799C28.5591 30.9607 28.512 30.9505 28.4643 30.9498C28.4166 30.949 28.3692 30.9578 28.3248 30.9756Z" fill="white"/>
<path d="M30.4788 30.1555L29.7554 30.4308C29.6767 30.4606 29.6111 30.517 29.5698 30.5903C29.5285 30.6635 29.5142 30.7489 29.5293 30.8316C29.5445 30.9143 29.5882 30.9891 29.6528 31.0429C29.7174 31.0967 29.7989 31.1262 29.8829 31.1262C29.9267 31.1262 29.9701 31.1182 30.0109 31.1024L30.7343 30.8272C30.7792 30.811 30.8205 30.786 30.8556 30.7538C30.8908 30.7215 30.9192 30.6825 30.9391 30.6391C30.9591 30.5957 30.9702 30.5488 30.9718 30.5011C30.9734 30.4534 30.9655 30.4058 30.9485 30.3612C30.9315 30.3166 30.9059 30.2758 30.8729 30.2412C30.84 30.2066 30.8005 30.179 30.7568 30.1598C30.7131 30.1407 30.666 30.1304 30.6182 30.1297C30.5705 30.1289 30.5231 30.1377 30.4788 30.1555Z" fill="white"/>
<path d="M28.3248 29.5381L26.1636 30.3607C26.0849 30.3905 26.0193 30.4469 25.978 30.5202C25.9367 30.5934 25.9224 30.6788 25.9375 30.7615C25.9527 30.8443 25.9964 30.919 26.061 30.9728C26.1256 31.0266 26.2071 31.0561 26.2911 31.0561C26.3349 31.0561 26.3783 31.0481 26.4191 31.0324L28.5804 30.2097C28.6253 30.1936 28.6665 30.1686 28.7017 30.1363C28.7369 30.1041 28.7653 30.0651 28.7852 30.0217C28.8052 29.9783 28.8163 29.9314 28.8179 29.8837C28.8195 29.836 28.8116 29.7884 28.7946 29.7438C28.7776 29.6992 28.7519 29.6584 28.719 29.6238C28.6861 29.5892 28.6466 29.5616 28.6029 29.5424C28.5591 29.5232 28.512 29.513 28.4643 29.5123C28.4166 29.5115 28.3692 29.5203 28.3248 29.5381Z" fill="white"/>
<path d="M30.4788 28.718L29.7554 28.9933C29.6767 29.0231 29.6111 29.0795 29.5698 29.1528C29.5285 29.226 29.5142 29.3114 29.5293 29.3941C29.5445 29.4768 29.5882 29.5516 29.6528 29.6054C29.7174 29.6592 29.7989 29.6887 29.8829 29.6887C29.9267 29.6887 29.9701 29.6807 30.0109 29.6649L30.7343 29.3897C30.7792 29.3735 30.8205 29.3486 30.8556 29.3163C30.8908 29.284 30.9192 29.245 30.9391 29.2016C30.9591 29.1583 30.9702 29.1113 30.9718 29.0636C30.9734 29.0159 30.9655 28.9684 30.9485 28.9237C30.9315 28.8791 30.9059 28.8383 30.8729 28.8037C30.84 28.7692 30.8005 28.7415 30.7568 28.7223C30.7131 28.7032 30.666 28.6929 30.6182 28.6922C30.5705 28.6914 30.5231 28.7002 30.4788 28.718Z" fill="white"/>
<path d="M28.3248 28.1006L26.1636 28.9232C26.0849 28.953 26.0193 29.0094 25.978 29.0827C25.9367 29.1559 25.9224 29.2413 25.9375 29.324C25.9527 29.4068 25.9964 29.4815 26.061 29.5353C26.1256 29.5891 26.2071 29.6186 26.2911 29.6186C26.3349 29.6186 26.3783 29.6106 26.4191 29.5949L28.5804 28.7722C28.6253 28.7561 28.6665 28.7311 28.7017 28.6988C28.7369 28.6666 28.7653 28.6276 28.7852 28.5842C28.8052 28.5408 28.8163 28.4939 28.8179 28.4462C28.8195 28.3985 28.8116 28.3509 28.7946 28.3063C28.7776 28.2617 28.7519 28.2209 28.719 28.1863C28.6861 28.1517 28.6466 28.1241 28.6029 28.1049C28.5591 28.0857 28.512 28.0755 28.4643 28.0748C28.4166 28.074 28.3692 28.0828 28.3248 28.1006Z" fill="white"/>
<path d="M30.4788 27.2805L29.7554 27.5558C29.6767 27.5856 29.6111 27.642 29.5698 27.7153C29.5285 27.7885 29.5142 27.8739 29.5293 27.9566C29.5445 28.0393 29.5882 28.1141 29.6528 28.1679C29.7174 28.2217 29.7989 28.2512 29.8829 28.2512C29.9267 28.2512 29.9701 28.2432 30.0109 28.2274L30.7343 27.9522C30.7792 27.936 30.8205 27.9111 30.8556 27.8788C30.8908 27.8465 30.9192 27.8075 30.9391 27.7641C30.9591 27.7208 30.9702 27.6738 30.9718 27.6261C30.9734 27.5784 30.9655 27.5309 30.9485 27.4862C30.9315 27.4416 30.9059 27.4008 30.8729 27.3662C30.84 27.3317 30.8005 27.304 30.7568 27.2848C30.7131 27.2657 30.666 27.2554 30.6182 27.2547C30.5705 27.2539 30.5231 27.2627 30.4788 27.2805Z" fill="white"/>
</g>
<defs>
<clipPath id="clip0_380_37">
<rect width="23" height="23" fill="white" transform="translate(13 13)"/>
</clipPath>
</defs>
</svg>
